PathFileType	4	(X/Y/Z)	Patient4_TMGait_0pt8_01_right_42.trc.trc
DataRate	CameraRate	NumFrames	NumMarkers	Units	OrigDataRate	OrigDataStartFrame	OrigNumFrames
89.171974522293	89.171974522293	4	33	mm	89.171974522293	36	       141
Frame#	Time	Sacral			L.Shoulder			Chest			R.Shoulder			Neck			R.ASIS			L.ASIS			R.Thigh.Superior			R.Thigh.Lateral			R.Thigh.Inferior			R.Patella			L.Thigh.Superior			L.Thigh.Lateral			L.Thigh.Inferior			L.Patella			L.Shank.Superior			L.Shank.Lateral			L.Shank.Inferior			R.Shank.Superior			R.Shank.Lateral			R.Shank.Inferior			R.Heel			R.Midfoot.Superior			R.Midfoot.Lateral			R.Toe			L.Heel			L.Midfoot.Lateral			L.Midfoot.Superior			L.Toe			L.Elbow			L.Wrist			R.Elbow			R.Wrist			
		X1	Y1	Z1	X2	Y2	Z2	X3	Y3	Z3	X4	Y4	Z4	X5	Y5	Z5	X6	Y6	Z6	X7	Y7	Z7	X8	Y8	Z8	X9	Y9	Z9	X10	Y10	Z10	X11	Y11	Z11	X12	Y12	Z12	X13	Y13	Z13	X14	Y14	Z14	X15	Y15	Z15	X16	Y16	Z16	X17	Y17	Z17	X18	Y18	Z18	X19	Y19	Z19	X20	Y20	Z20	X21	Y21	Z21	X22	Y22	Z22	X23	Y23	Z23	X24	Y24	Z24	X25	Y25	Z25	X26	Y26	Z26	X27	Y27	Z27	X28	Y28	Z28	X29	Y29	Z29	X30	Y30	Z30	X31	Y31	Z31	X32	Y32	Z32	X33	Y33	Z33	

36	47.572500000000	919.661257376260	991.967442136996	481.972238390083	1095.504361854535	1429.926443155383	311.279768305269	1195.878673163813	1356.238008028295	472.146983864329	1105.799255307751	1421.119398522146	646.427272464385	1073.473055567197	1483.556550330571	468.256679991631	1152.490753449572	931.754374211702	597.083675608920	1129.651865540525	951.404321931180	324.038964055932	1222.736444317754	750.372613339965	566.659706786454	1160.260965452683	630.922799919097	628.113391910941	1246.884232157489	590.310157608384	549.590094725288	1263.837938692740	498.884929519584	558.217564506843	1152.934157537777	723.252529005377	339.082171874733	1050.470975179313	617.235437077426	277.384465066566	1132.089419539866	524.006459474603	328.962032695197	1115.267773473658	439.600679322655	325.461545993151	1040.597261925384	388.114893887375	323.303444084035	894.018783126343	358.917179570362	283.294762541785	871.534859889393	232.125782475595	339.247945260781	1235.804684162937	407.593762485899	565.459244740025	1167.791823946282	302.772300956720	628.950735137209	1211.804107458474	207.876101970601	567.366074486761	1080.163456670293	43.551842030007	541.679664716455	1250.789738550615	97.652297103446	575.869770581927	1163.746758992939	38.094041081938	616.232873223668	1371.450260024741	46.209458192414	604.615754656020	677.967076201814	185.719085888797	387.909289097673	726.378005228173	131.071058592858	308.219471904854	831.953347635792	130.319841569100	324.430901634866	897.952936614610	29.561489568718	300.668757410905	1141.095320176964	1100.489379336075	154.757482543066	1395.331134214970	1084.981943369468	181.931625196838	979.199673107649	1094.485977194038	743.014093961968	950.265418753826	835.781792885844	748.540285756768	
37	47.583714285714	919.730655920259	993.507727250774	485.480046434390	1094.430321521362	1431.218667586407	312.954261971541	1196.282605191813	1357.559470859460	472.947982316172	1107.782726936794	1422.449427178070	647.955193712047	1073.873558149838	1484.933914770465	470.009076756870	1153.275848140802	933.420002642900	599.039403754357	1128.820693682563	952.289486766396	326.203754943449	1221.412664392380	749.582305549447	569.900673079377	1156.481738880711	630.938441050173	630.011600273268	1242.719929890360	589.394979115877	551.497328528813	1258.211556130654	497.955969142228	559.373249070297	1158.305488044520	726.178837630518	341.770655997508	1060.515120735324	617.454298097572	278.950637070372	1144.852450172258	526.214025902480	331.017376561069	1129.314629816567	440.646297907020	327.028160129818	1053.047832617097	389.289752059561	324.531763761170	905.562512422151	365.032202041228	283.997087071611	878.863457746374	238.935335668290	339.621487306151	1229.443520441233	407.041018760200	566.508964014884	1160.833366837805	302.583476135458	629.724337267837	1203.910317031587	207.527930945374	567.739567274231	1071.284734704265	43.600778294514	541.818865360488	1241.880518747455	97.584956300425	576.119517788862	1154.820605877267	38.099961986097	616.377603221189	1362.551492679361	45.949736157628	604.905500278934	684.094411006656	202.465066018041	387.542997319362	729.588502016050	144.828048059117	307.952259466075	835.216911262153	137.276943902705	324.687514611631	894.012183820502	29.100202020485	300.765001408049	1132.691970932438	1098.488363119468	160.221884724598	1386.633287524063	1069.228644938807	184.121302322763	988.779770460141	1092.472049555407	746.447429560319	973.018770585301	832.331616955181	750.773911956363	
38	47.594928571429	919.618567762745	995.046766428113	488.978297630822	1092.997542067695	1432.406274742192	314.490988635262	1196.502006973981	1358.812174661219	473.495972127198	1109.788761129636	1423.707059817061	649.342258113119	1074.135816695681	1486.247373107685	471.646768484668	1153.887568419443	934.981936802408	600.738565608641	1127.745171829655	953.092845388507	328.083980369320	1219.626948090763	748.657198337038	572.838195452874	1152.448421793514	630.976414775853	631.847824798419	1238.106646853662	588.455133234760	553.186935546477	1252.138608992014	497.032557047321	560.439002312619	1163.493530279015	729.465685862644	344.493908910546	1070.493020399734	618.196422893203	280.512859896409	1157.389822241611	529.087435132590	333.275975705339	1143.372088028285	442.422498390567	328.893422764215	1065.796226957970	391.029034428489	325.938663032918	917.681721541147	371.114306264346	284.745259519002	887.215277806531	245.721498671808	340.127707435280	1222.714228702130	406.505217168942	567.514692322148	1153.597435941200	302.364805482736	630.474105920319	1195.832659768341	207.190870134358	568.108446998722	1062.314854078007	43.645700941848	541.955158843189	1232.917940294029	97.458386911916	576.342396901537	1145.819184700610	38.073503687162	616.506974707261	1353.596318592185	45.582732791505	605.132251240492	691.660635340500	217.919234264053	387.198524253542	734.642937198193	157.854170277674	307.701774330894	840.072093951194	144.442559403692	325.048633355643	892.408490466313	29.341847128351	300.865338967339	1124.381568984756	1096.634289033523	165.646543140059	1377.056530936382	1052.349043248176	186.233847344645	998.675715500107	1090.561362586385	749.837377864626	996.941212154994	829.623888842034	752.824121618777	
39	47.606142857143	919.359476247333	996.569562314965	492.435938659132	1091.255230615802	1433.484345804042	315.891907632512	1196.548952409787	1359.985534519580	473.808890985245	1111.813869336543	1424.903343234410	650.586004205478	1074.274552174553	1487.503614232419	473.161547242616	1154.320254566554	936.440721707955	602.201109357715	1126.463469363672	953.839824484104	329.682013091568	1217.420366715387	747.694822509663	575.392868347335	1148.257977707786	631.073651818974	633.632890804170	1233.128196131716	587.531012574205	554.671045940381	1245.699802185252	496.149872443739	561.452094016098	1168.401669345740	733.123954396099	347.227264401033	1080.233318855016	619.510559971848	282.053862657225	1169.538748077123	532.649192518882	335.625305691506	1157.273105439110	444.961590894610	330.893966663109	1078.696399652621	393.348304772876	327.414799693351	930.179995026791	377.020709359024	285.524244124848	896.571519072479	252.245581739137	340.715403326613	1215.705806441480	406.009687607184	568.487929791005	1146.158840134126	302.146722491951	631.216701181697	1187.625072656142	206.886005426315	568.482753919912	1053.283764762586	43.700959552655	542.093856960816	1223.930242662547	97.298991081336	576.545555347503	1136.770961782089	38.035104268236	616.628588379049	1344.608966457832	45.145548095220	605.311732244674	700.533726761787	231.417471293961	386.891156561168	741.568068244596	169.541872108072	307.479823004530	846.657074590551	151.481559008587	325.465367054566	893.654250241772	30.374010884756	300.972007625899	1116.250027720666	1094.901161755520	171.002513764805	1366.456617288164	1034.475396625683	188.258526246704	1008.942738574449	1088.758865537598	753.139411293093	1021.930844110618	827.813068198689	754.648944625018	
